<svg width="1200" height="900" viewBox="0 0 1200 900" fill="none" xmlns="http://www.w3.org/2000/svg">
  <defs>
    <linearGradient id="bg" x1="0" y1="0" x2="1200" y2="900" gradientUnits="userSpaceOnUse">
      <stop stop-color="#DBF4FF"/>
      <stop offset="0.5" stop-color="#EEF7FF"/>
      <stop offset="1" stop-color="#B9E7FF"/>
    </linearGradient>
    <linearGradient id="card" x1="220" y1="180" x2="980" y2="760" gradientUnits="userSpaceOnUse">
      <stop stop-color="#FFFFFF" stop-opacity="0.95"/>
      <stop offset="1" stop-color="#DFF3FF" stop-opacity="0.85"/>
    </linearGradient>
    <linearGradient id="accent" x1="320" y1="220" x2="880" y2="680" gradientUnits="userSpaceOnUse">
      <stop stop-color="#2563EB"/>
      <stop offset="1" stop-color="#06B6D4"/>
    </linearGradient>
  </defs>
  <rect width="1200" height="900" rx="48" fill="url(#bg)"/>
  <circle cx="170" cy="150" r="88" fill="#FFFFFF" fill-opacity="0.45"/>
  <circle cx="1030" cy="130" r="120" fill="#4DD0E1" fill-opacity="0.25"/>
  <circle cx="980" cy="770" r="150" fill="#2563EB" fill-opacity="0.16"/>
  <rect x="170" y="150" width="860" height="600" rx="40" fill="url(#card)" stroke="#FFFFFF" stroke-opacity="0.8"/>
  <rect x="240" y="220" width="330" height="430" rx="32" fill="#F8FCFF" stroke="#CFEFFF" stroke-width="4"/>
  <rect x="612" y="220" width="328" height="190" rx="32" fill="#F8FCFF" stroke="#CFEFFF" stroke-width="4"/>
  <rect x="612" y="442" width="328" height="208" rx="32" fill="#F8FCFF" stroke="#CFEFFF" stroke-width="4"/>
  <rect x="280" y="270" width="250" height="34" rx="17" fill="#D7F0FF"/>
  <rect x="280" y="332" width="190" height="18" rx="9" fill="#DCEEFF"/>
  <rect x="280" y="364" width="220" height="18" rx="9" fill="#DCEEFF"/>
  <rect x="280" y="396" width="160" height="18" rx="9" fill="#DCEEFF"/>
  <rect x="280" y="450" width="195" height="80" rx="22" fill="url(#accent)"/>
  <circle cx="365" cy="490" r="20" fill="#FFFFFF" fill-opacity="0.92"/>
  <rect x="660" y="268" width="130" height="18" rx="9" fill="#DCEEFF"/>
  <rect x="660" y="308" width="240" height="22" rx="11" fill="#D7F0FF"/>
  <rect x="660" y="348" width="180" height="12" rx="6" fill="#E6F5FF"/>
  <rect x="660" y="474" width="228" height="24" rx="12" fill="#D7F0FF"/>
  <rect x="660" y="520" width="200" height="24" rx="12" fill="#DCEEFF"/>
  <rect x="660" y="566" width="150" height="24" rx="12" fill="#E6F5FF"/>
  <circle cx="860" cy="566" r="34" fill="url(#accent)"/>
  <path d="M847 566h26M860 553v26" stroke="white" stroke-width="8" stroke-linecap="round"/>
  <rect x="320" y="615" width="120" height="26" rx="13" fill="#D7F0FF"/>
  <rect x="460" y="615" width="95" height="26" rx="13" fill="#DCEEFF"/>
  <path d="M242 614C302 556 392 530 492 548" stroke="#93D9F5" stroke-width="10" stroke-linecap="round"/>
  <path d="M624 404C700 372 806 356 924 380" stroke="#7DD3FC" stroke-width="10" stroke-linecap="round"/>
  <text x="90" y="820" fill="#0F172A" fill-opacity="0.5" font-family="Arial, Helvetica, sans-serif" font-size="28" font-weight="700">Setup phase</text>
</svg>